<svg width="32" height="32" viewBox="0 0 32 32" fill="none" xmlns="http://www.w3.org/2000/svg">
<mask id="mask0_47_95" style="mask-type:alpha" maskUnits="userSpaceOnUse" x="0" y="0" width="32" height="32">
<rect width="32" height="32" fill="#F4D3C1"/>
</mask>
<g mask="url(#mask0_47_95)">
<path d="M7.8 22.8C8.93334 21.9334 10.2 21.25 11.6 20.75C13 20.25 14.4667 20 16 20C17.5333 20 19 20.25 20.4 20.75C21.8 21.25 23.0667 21.9334 24.2 22.8C24.9778 21.8889 25.5833 20.8556 26.0167 19.7C26.45 18.5445 26.6667 17.3111 26.6667 16C26.6667 13.0445 25.6278 10.5278 23.55 8.45002C21.4722 6.37224 18.9556 5.33335 16 5.33335C13.0444 5.33335 10.5278 6.37224 8.45001 8.45002C6.37223 10.5278 5.33334 13.0445 5.33334 16C5.33334 17.3111 5.55 18.5445 5.98334 19.7C6.41667 20.8556 7.02223 21.8889 7.8 22.8ZM16 17.3334C14.6889 17.3334 13.5833 16.8834 12.6833 15.9834C11.7833 15.0834 11.3333 13.9778 11.3333 12.6667C11.3333 11.3556 11.7833 10.25 12.6833 9.35002C13.5833 8.45002 14.6889 8.00002 16 8.00002C17.3111 8.00002 18.4167 8.45002 19.3167 9.35002C20.2167 10.25 20.6667 11.3556 20.6667 12.6667C20.6667 13.9778 20.2167 15.0834 19.3167 15.9834C18.4167 16.8834 17.3111 17.3334 16 17.3334ZM16 29.3334C14.1556 29.3334 12.4222 28.9834 10.8 28.2834C9.17778 27.5834 7.76667 26.6334 6.56667 25.4334C5.36667 24.2334 4.41667 22.8222 3.71667 21.2C3.01667 19.5778 2.66667 17.8445 2.66667 16C2.66667 14.1556 3.01667 12.4222 3.71667 10.8C4.41667 9.1778 5.36667 7.76669 6.56667 6.56669C7.76667 5.36669 9.17778 4.41669 10.8 3.71669C12.4222 3.01669 14.1556 2.66669 16 2.66669C17.8444 2.66669 19.5778 3.01669 21.2 3.71669C22.8222 4.41669 24.2333 5.36669 25.4333 6.56669C26.6333 7.76669 27.5833 9.1778 28.2833 10.8C28.9833 12.4222 29.3333 14.1556 29.3333 16C29.3333 17.8445 28.9833 19.5778 28.2833 21.2C27.5833 22.8222 26.6333 24.2334 25.4333 25.4334C24.2333 26.6334 22.8222 27.5834 21.2 28.2834C19.5778 28.9834 17.8444 29.3334 16 29.3334Z" fill="#FAE4D9"/>
</g>
</svg>
