<svg width="32" height="32" viewBox="0 0 32 32" fill="none" xmlns="http://www.w3.org/2000/svg">
<mask id="mask0_113_742" style="mask-type:alpha" maskUnits="userSpaceOnUse" x="0" y="0" width="32" height="32">
<rect width="32" height="32" fill="#F4D3C1"/>
</mask>
<g mask="url(#mask0_113_742)">
<path d="M7.79996 22.8C8.93329 21.9333 10.2 21.25 11.6 20.75C13 20.25 14.4666 20 16 20C17.5333 20 19 20.25 20.4 20.75C21.8 21.25 23.0666 21.9333 24.2 22.8C24.9777 21.8889 25.5833 20.8556 26.0166 19.7C26.45 18.5444 26.6666 17.3111 26.6666 16C26.6666 13.0444 25.6277 10.5278 23.55 8.45001C21.4722 6.37223 18.9555 5.33334 16 5.33334C13.0444 5.33334 10.5277 6.37223 8.44996 8.45001C6.37218 10.5278 5.33329 13.0444 5.33329 16C5.33329 17.3111 5.54996 18.5444 5.98329 19.7C6.41663 20.8556 7.02218 21.8889 7.79996 22.8ZM16 17.3333C14.6888 17.3333 13.5833 16.8833 12.6833 15.9833C11.7833 15.0833 11.3333 13.9778 11.3333 12.6667C11.3333 11.3556 11.7833 10.25 12.6833 9.35001C13.5833 8.45001 14.6888 8 16 8C17.3111 8 18.4166 8.45001 19.3166 9.35001C20.2166 10.25 20.6666 11.3556 20.6666 12.6667C20.6666 13.9778 20.2166 15.0833 19.3166 15.9833C18.4166 16.8833 17.3111 17.3333 16 17.3333ZM16 29.3333C14.1555 29.3333 12.4222 28.9833 10.8 28.2833C9.17774 27.5833 7.76663 26.6333 6.56663 25.4333C5.36663 24.2333 4.41663 22.8222 3.71663 21.2C3.01663 19.5778 2.66663 17.8444 2.66663 16C2.66663 14.1556 3.01663 12.4222 3.71663 10.8C4.41663 9.17778 5.36663 7.76667 6.56663 6.56667C7.76663 5.36667 9.17774 4.41667 10.8 3.71667C12.4222 3.01667 14.1555 2.66667 16 2.66667C17.8444 2.66667 19.5777 3.01667 21.2 3.71667C22.8222 4.41667 24.2333 5.36667 25.4333 6.56667C26.6333 7.76667 27.5833 9.17778 28.2833 10.8C28.9833 12.4222 29.3333 14.1556 29.3333 16C29.3333 17.8444 28.9833 19.5778 28.2833 21.2C27.5833 22.8222 26.6333 24.2333 25.4333 25.4333C24.2333 26.6333 22.8222 27.5833 21.2 28.2833C19.5777 28.9833 17.8444 29.3333 16 29.3333Z" fill="#EFC1A9"/>
</g>
</svg>
